<?xml version="1.0" encoding="utf-8"?>
<!-- Generator: Adobe Illustrator 16.0.0, SVG Export Plug-In . SVG Version: 6.00 Build 0)  -->
<!DOCTYPE svg PUBLIC "-//W3C//DTD SVG 1.1//EN" "http://www.w3.org/Graphics/SVG/1.1/DTD/svg11.dtd">
<svg version="1.1" id="Layer_1" xmlns="http://www.w3.org/2000/svg" xmlns:xlink="http://www.w3.org/1999/xlink" x="0px" y="0px"
	 width="337.272px" height="55.384px" viewBox="0 0 337.272 55.384" enable-background="new 0 0 337.272 55.384"
	 xml:space="preserve">
<g>
	<path fill="#003399" d="M29.007,39.946c0.349,1.08,0.451,2.074,0.307,2.983s-0.46,1.744-0.947,2.504
		c-0.487,0.761-1.107,1.454-1.861,2.078c-0.754,0.625-1.567,1.186-2.441,1.683c-0.874,0.498-1.771,0.932-2.693,1.302
		c-0.922,0.37-1.793,0.687-2.613,0.952c-0.807,0.261-1.652,0.501-2.536,0.723s-1.778,0.398-2.683,0.533
		c-0.905,0.134-1.812,0.216-2.723,0.244c-0.91,0.028-1.795-0.02-2.654-0.145L0,27.682c0.631-0.534,1.318-1.054,2.06-1.56
		c0.742-0.505,1.513-0.977,2.312-1.416c0.8-0.438,1.608-0.835,2.427-1.194c0.818-0.357,1.625-0.665,2.418-0.921
		c0.923-0.298,1.876-0.542,2.857-0.729c0.981-0.188,1.952-0.286,2.912-0.294c0.959-0.009,1.887,0.083,2.783,0.275
		c0.896,0.192,1.729,0.516,2.501,0.97c0.772,0.455,1.454,1.054,2.046,1.796c0.592,0.743,1.067,1.667,1.424,2.772
		c0.235,0.729,0.352,1.446,0.35,2.15c-0.002,0.705-0.116,1.374-0.342,2.007c-0.227,0.634-0.562,1.22-1.005,1.758
		s-0.989,1.006-1.637,1.402c0.917-0.052,1.793,0.024,2.627,0.229c0.834,0.205,1.595,0.534,2.28,0.987
		c0.686,0.454,1.286,1.021,1.8,1.703C28.327,38.298,28.725,39.074,29.007,39.946z M15.499,32.026
		c-0.122-0.377-0.304-0.674-0.546-0.89s-0.505-0.372-0.787-0.468c-0.282-0.095-0.569-0.139-0.861-0.131
		c-0.292,0.008-0.542,0.046-0.75,0.113c-0.26,0.084-0.501,0.205-0.723,0.363c-0.222,0.158-0.433,0.327-0.634,0.506l1.283,4.37
		c0.299-0.097,0.661-0.243,1.087-0.438c0.425-0.195,0.815-0.447,1.168-0.755s0.617-0.681,0.792-1.118S15.692,32.625,15.499,32.026z
		 M14.784,39.284c-0.378,0.122-0.729,0.278-1.055,0.47l1.36,4.474c0.208-0.024,0.411-0.05,0.61-0.079
		c0.199-0.028,0.39-0.072,0.572-0.131c0.273-0.088,0.563-0.214,0.87-0.378c0.306-0.164,0.574-0.379,0.803-0.647
		s0.39-0.582,0.482-0.943c0.092-0.36,0.058-0.787-0.102-1.282c-0.16-0.494-0.384-0.867-0.674-1.118s-0.599-0.421-0.929-0.508
		c-0.33-0.087-0.667-0.108-1.011-0.062C15.366,39.128,15.057,39.195,14.784,39.284z"/>
	<path fill="#003399" d="M56.527,38.828L46.97,42.55l-2.31-4.203l-4.539,1.125l0.12,4.745L29.844,45.74l1.348-28.478l10.929-3.302
		L56.527,38.828z M42.434,32.434l-3.23-6.552l0.245,7.292L42.434,32.434z"/>
	<path fill="#003399" d="M75.608,26.024c0.348,1.84,0.333,3.509-0.044,5.007c-0.377,1.498-1.034,2.808-1.969,3.931
		c-0.936,1.124-2.102,2.054-3.5,2.792s-2.95,1.268-4.656,1.591c-0.658,0.125-1.396,0.173-2.215,0.148
		c-0.819-0.026-1.656-0.094-2.512-0.203c-0.855-0.109-1.685-0.245-2.487-0.406s-1.519-0.321-2.147-0.481l-0.684-8.47
		c1.271,0.469,2.636,0.75,4.094,0.843c1.458,0.093,2.858,0.012,4.202-0.242c0.255-0.048,0.562-0.117,0.921-0.206
		s0.693-0.215,1.003-0.378s0.56-0.367,0.75-0.612c0.19-0.245,0.25-0.555,0.179-0.931c-0.048-0.255-0.17-0.458-0.366-0.609
		s-0.432-0.259-0.708-0.325c-0.277-0.066-0.582-0.099-0.916-0.098s-0.658,0.017-0.972,0.048c-0.314,0.032-0.605,0.073-0.874,0.124
		c-0.269,0.051-0.483,0.092-0.645,0.122c-1.156,0.219-2.245,0.216-3.268-0.008c-1.023-0.224-1.942-0.63-2.756-1.221
		c-0.814-0.59-1.503-1.343-2.066-2.26c-0.563-0.916-0.954-1.952-1.172-3.107c-0.3-1.585-0.25-3.066,0.151-4.443
		c0.4-1.376,1.051-2.606,1.953-3.688s2-1.989,3.294-2.721c1.294-0.732,2.681-1.238,4.158-1.518c0.658-0.125,1.341-0.229,2.049-0.314
		c0.707-0.085,1.418-0.133,2.133-0.143c0.715-0.01,1.419,0.017,2.113,0.08s1.363,0.18,2.008,0.351l0.782,8.326
		c-0.972-0.136-1.978-0.213-3.018-0.232c-1.041-0.019-2.038,0.062-2.991,0.243c-0.175,0.033-0.399,0.079-0.673,0.138
		c-0.274,0.059-0.559,0.134-0.855,0.225s-0.592,0.199-0.888,0.325c-0.296,0.125-0.555,0.269-0.775,0.428
		c-0.22,0.16-0.386,0.348-0.499,0.564c-0.112,0.216-0.138,0.451-0.076,0.703c0.069,0.293,0.225,0.51,0.468,0.652
		s0.538,0.232,0.886,0.271c0.348,0.039,0.724,0.041,1.128,0.006s0.801-0.085,1.192-0.153c0.391-0.066,0.753-0.135,1.088-0.206
		s0.612-0.112,0.832-0.126c1.087-0.136,2.098-0.09,3.031,0.136c0.933,0.227,1.76,0.606,2.48,1.138
		c0.72,0.532,1.322,1.214,1.807,2.048C75.061,23.995,75.405,24.949,75.608,26.024z"/>
	<path fill="#003399" d="M102.674,33.245l-10.09,1.89l-1.377-9.375l-4.672,0.645l0.944,8.937l-9.102,1.256l-3.17-28.67l9.731-0.888
		l1.404,14.67l4.51-0.623L88.729,5.399l9.297-1.035L102.674,33.245z"/>
	<path fill="#003399" d="M137.981,28.604l-10.049,2.051l-1.565-4.533l-4.663,0.341l-0.685,4.697l-10.506-0.259l6.146-27.839
		l11.33-1.405L137.981,28.604z M125.172,19.918l-2.075-7.004l-0.993,7.229L125.172,19.918z"/>
	<path fill="#003399" d="M170.085,22.428c0.017,1.135-0.177,2.115-0.582,2.941c-0.405,0.826-0.952,1.532-1.641,2.116
		c-0.688,0.584-1.485,1.064-2.389,1.44c-0.904,0.376-1.846,0.673-2.827,0.893c-0.981,0.219-1.967,0.37-2.957,0.454
		c-0.991,0.083-1.916,0.131-2.777,0.143c-0.848,0.013-1.727-0.005-2.636-0.053c-0.91-0.048-1.817-0.141-2.722-0.278
		c-0.904-0.137-1.796-0.326-2.675-0.566c-0.878-0.24-1.71-0.545-2.495-0.917l-0.43-26.411c0.761-0.325,1.57-0.621,2.428-0.887
		s1.732-0.49,2.625-0.674s1.783-0.327,2.67-0.429c0.887-0.102,1.748-0.159,2.582-0.171c0.971-0.014,1.952,0.033,2.945,0.142
		s1.95,0.299,2.87,0.573c0.92,0.274,1.78,0.634,2.58,1.08s1.502,1,2.106,1.661s1.081,1.434,1.429,2.317
		c0.348,0.884,0.531,1.907,0.548,3.068c0.011,0.766-0.088,1.485-0.296,2.158c-0.209,0.673-0.515,1.279-0.917,1.818
		s-0.895,1.001-1.477,1.386c-0.583,0.385-1.241,0.671-1.977,0.859c0.892,0.22,1.707,0.549,2.445,0.99s1.368,0.978,1.89,1.613
		c0.522,0.635,0.929,1.354,1.222,2.156C169.919,20.653,170.072,21.512,170.085,22.428z M159.497,10.893
		c-0.006-0.396-0.093-0.733-0.261-1.011s-0.374-0.504-0.615-0.678c-0.242-0.174-0.503-0.3-0.785-0.378
		c-0.282-0.078-0.532-0.115-0.75-0.112c-0.273,0.004-0.54,0.049-0.798,0.135c-0.259,0.085-0.51,0.185-0.754,0.298l-0.056,4.554
		c0.314-0.004,0.704-0.038,1.167-0.099s0.91-0.188,1.338-0.379c0.428-0.191,0.79-0.469,1.085-0.836S159.505,11.521,159.497,10.893z
		 M156.683,17.621c-0.397,0.006-0.779,0.052-1.146,0.14l-0.013,4.677c0.206,0.038,0.408,0.073,0.606,0.104
		c0.198,0.032,0.394,0.045,0.585,0.043c0.287-0.004,0.601-0.04,0.942-0.106c0.341-0.066,0.66-0.194,0.958-0.383
		c0.298-0.189,0.543-0.442,0.737-0.759c0.193-0.317,0.287-0.735,0.279-1.255c-0.007-0.519-0.113-0.942-0.316-1.267
		c-0.203-0.325-0.449-0.578-0.739-0.758c-0.29-0.181-0.606-0.299-0.949-0.355S156.97,17.616,156.683,17.621z"/>
	<path fill="#003399" d="M195.54,10.648c-0.029,1.066-0.148,2.031-0.357,2.893c-0.207,0.863-0.52,1.651-0.936,2.364
		c-0.418,0.714-0.949,1.369-1.594,1.967c-0.646,0.598-1.42,1.165-2.324,1.7l4.639,8.827l-9.273,1.549l-2.916-8.82l-2.545,0.012
		l-0.605,8.518l-8.814-0.243c0.154-3.114,0.305-6.214,0.452-9.302c0.146-3.086,0.304-6.187,0.472-9.301
		c0.071-1.571,0.141-3.128,0.211-4.672c0.07-1.543,0.168-3.1,0.293-4.669c0.966-0.329,1.917-0.597,2.853-0.804
		c0.937-0.207,1.874-0.362,2.813-0.466s1.893-0.167,2.857-0.188c0.965-0.021,1.953-0.018,2.965,0.01
		c1.557,0.043,3.059,0.3,4.502,0.771s2.713,1.152,3.811,2.044c1.098,0.892,1.967,1.99,2.607,3.292
		C195.29,7.435,195.586,8.94,195.54,10.648z M186.338,11.051c0.016-0.574-0.049-1.102-0.193-1.585s-0.365-0.903-0.662-1.26
		c-0.299-0.357-0.674-0.641-1.125-0.852c-0.453-0.21-0.986-0.325-1.602-0.342c-0.273-0.007-0.541,0.002-0.801,0.029
		c-0.262,0.027-0.516,0.071-0.764,0.133l-0.537,7.617l0.492,0.013c0.586,0.017,1.188-0.042,1.799-0.176
		c0.613-0.133,1.166-0.351,1.66-0.652c0.492-0.301,0.9-0.693,1.223-1.177C186.149,12.318,186.319,11.735,186.338,11.051z"/>
	<path fill="#003399" d="M217.489,2.322c-0.168,1.277-0.328,2.541-0.48,3.791c-0.152,1.251-0.326,2.514-0.521,3.788l-8.705-0.132
		l-0.377,2.564l6.098,0.409l-0.877,6.313l-6.152-0.208l-0.404,2.974l5.074,0.34l3.602,0.242c-0.184,1.495-0.367,2.979-0.557,4.454
		c-0.188,1.474-0.365,2.953-0.533,4.435l-17.666-0.774l2.635-29.462L217.489,2.322z"/>
	<path fill="#003399" d="M243.534,5.904l-9.443,12.965l5.471,12.761l-8.809,1.73l-2.773-8.715l-5.225,7.893l-8.465-4.132
		l8.779-11.016l-5.508-13.177l9.582-1.234l2.457,8.558l4.434-7.813L243.534,5.904z"/>
	<path fill="#003399" d="M255.303,7.606l-6.221,27.323l-8.631-0.789l3.971-27.523L255.303,7.606z"/>
	<path fill="#003399" d="M278.891,11.299l-1.754,8.519l-6.057-0.849l-5.004,18.852l-8.596-1.101l3.51-19.122l-6.07-0.768l1.969-9.48
		L278.891,11.299z"/>
	<path fill="#003399" d="M300.024,15.936c-0.369,1.233-0.73,2.455-1.08,3.665c-0.352,1.21-0.725,2.429-1.121,3.656l-8.572-1.523
		l-0.783,2.471l5.953,1.379l-1.875,6.091l-6.039-1.188l-0.875,2.871l4.955,1.147l3.516,0.815c-0.42,1.447-0.84,2.882-1.262,4.307
		c-0.422,1.425-0.834,2.856-1.236,4.292l-17.314-3.59l7.314-28.661L300.024,15.936z"/>
	<path fill="#003399" d="M322.27,32.578c-0.303,1.023-0.664,1.925-1.086,2.706c-0.422,0.781-0.926,1.463-1.51,2.046
		c-0.586,0.583-1.266,1.081-2.043,1.494c-0.777,0.413-1.67,0.763-2.682,1.05l2.23,9.719l-9.363-0.873l-0.564-9.272l-2.463-0.639
		l-2.762,8.081l-8.461-2.488c0.945-2.971,1.883-5.93,2.814-8.877c0.932-2.947,1.875-5.904,2.834-8.871
		c0.469-1.5,0.936-2.988,1.398-4.463c0.461-1.474,0.953-2.954,1.477-4.439c1.018-0.071,2.006-0.086,2.963-0.047
		c0.959,0.04,1.904,0.129,2.84,0.269s1.871,0.323,2.811,0.548c0.938,0.226,1.891,0.482,2.863,0.768
		c1.494,0.439,2.879,1.071,4.154,1.896s2.33,1.807,3.162,2.95c0.832,1.143,1.393,2.426,1.68,3.85
		C322.848,29.407,322.75,30.938,322.27,32.578z M313.27,30.615c0.162-0.551,0.234-1.078,0.219-1.582
		c-0.016-0.503-0.121-0.966-0.318-1.387c-0.197-0.421-0.486-0.792-0.871-1.111c-0.383-0.319-0.869-0.566-1.459-0.739
		c-0.264-0.078-0.523-0.136-0.783-0.177c-0.258-0.041-0.516-0.062-0.771-0.066l-2.467,7.226l0.473,0.139
		c0.562,0.166,1.158,0.263,1.785,0.29c0.625,0.027,1.215-0.042,1.77-0.206c0.555-0.165,1.049-0.44,1.482-0.825
		C312.764,31.792,313.077,31.271,313.27,30.615z"/>
	<path fill="#003399" d="M326.649,52.522c-0.203,0.567-0.5,1.056-0.893,1.467s-0.838,0.736-1.336,0.972
		c-0.498,0.237-1.029,0.374-1.594,0.413c-0.566,0.038-1.125-0.041-1.68-0.238c-0.566-0.202-1.057-0.496-1.471-0.882
		s-0.738-0.829-0.975-1.327c-0.238-0.498-0.375-1.029-0.414-1.594c-0.037-0.565,0.045-1.131,0.246-1.698
		c0.197-0.554,0.49-1.044,0.883-1.471c0.391-0.427,0.834-0.758,1.332-0.995c0.498-0.236,1.031-0.377,1.598-0.422
		c0.568-0.045,1.135,0.034,1.701,0.235c0.555,0.197,1.037,0.492,1.449,0.885c0.41,0.393,0.734,0.838,0.973,1.336
		c0.236,0.498,0.373,1.037,0.414,1.617C326.924,51.401,326.846,51.969,326.649,52.522z M337.272,26.699l-8.816,19.763l-7.148-2.543
		l6.496-20.587L337.272,26.699z"/>
</g>
</svg>
